<?xml version="1.0" standalone="no"?>
<!DOCTYPE svg PUBLIC "-//W3C//DTD SVG 20010904//EN"
 "http://www.w3.org/TR/2001/REC-SVG-20010904/DTD/svg10.dtd">
<svg version="1.0" xmlns="http://www.w3.org/2000/svg"
 width="512.000000pt" height="512.000000pt" viewBox="0 0 512.000000 512.000000"
 preserveAspectRatio="xMidYMid meet">
<metadata>
Created by potrace 1.11, written by Peter Selinger 2001-2013
</metadata>
<g transform="translate(0.000000,512.000000) scale(0.100000,-0.100000)"
fill="#000000" stroke="none">
<path d="M2325 5109 c-649 -66 -1218 -351 -1656 -826 -167 -182 -289 -363
-404 -598 -123 -250 -194 -477 -237 -750 -31 -200 -31 -550 0 -750 43 -273
114 -500 237 -750 148 -302 323 -536 572 -766 182 -167 363 -289 598 -404 250
-123 477 -194 750 -237 200 -31 550 -31 750 0 273 43 500 114 750 237 235 115
416 237 598 404 249 230 424 464 572 766 123 250 194 477 237 750 31 200 31
550 0 750 -43 273 -114 500 -237 750 -148 302 -323 536 -572 766 -182 167
-363 289 -598 404 -249 122 -482 196 -747 236 -154 23 -474 33 -613 18z m387
-966 c88 -41 160 -110 198 -187 126 -256 -25 -552 -304 -598 -160 -26 -328 50
-417 191 -44 68 -61 142 -57 241 4 109 43 197 119 271 90 87 173 119 304 116
77 -2 100 -7 157 -34z m-920 -895 l68 -11 64 -111 c35 -61 62 -112 61 -114 -1
-2 -77 11 -167 28 -91 16 -172 30 -180 30 -11 0 -104 -194 -292 -606 -153
-333 -275 -608 -273 -611 3 -2 192 -62 421 -133 l415 -129 538 184 c296 102
544 185 552 185 8 0 207 -52 444 -115 236 -64 431 -114 432 -113 2 2 -553
1265 -561 1276 -2 2 -43 12 -93 21 -50 10 -93 20 -95 22 -3 3 84 162 96 174 4
5 276 -39 282 -46 10 -10 906 -1864 904 -1870 -2 -3 -307 79 -678 183 -371
104 -688 189 -705 189 -16 0 -285 -85 -597 -190 l-568 -189 -542 189 c-298
105 -544 192 -546 194 -2 2 154 343 348 757 194 414 364 776 377 804 l23 51
103 -19 c56 -10 132 -23 169 -30z"/>
</g>
</svg>
